<svg viewBox="0 0 32 32" xmlns="http://www.w3.org/2000/svg">
    <path d="M27.78 25.64q.13 1.4-1.77 3.28-1.9 1.9-3.28 1.81h-5.9q-.42 0-.58-.25a1 1 0 0 1-.26-.55v-4.08q-.08 1.4-1.76 3.07-1.9 1.9-3.29 1.81h-5.9q-.41 0-.58-.25-.25-.25-.25-.76V6.32Q4.13 4.9 6 3.08a7 7 0 0 1 2.24-1.6q1.14-.46 1.6.04.45.47.02 1.6-.45 1.14-1.58 2.23Q6.61 7.1 5.22 7.16h4.04q.42 0 .59.26.45.46.02 1.6-.45 1.13-1.58 2.23-1.68 1.73-3.07 1.8h3.83q.54-.07.8.26.45.46.02 1.6-.45 1.14-1.58 2.23-1.68 1.72-3.07 1.81h3.87q.5-.08.76.25.25.21.25.68h.04l-.04 3.83h.04q.13-1.31 1.77-2.95a7 7 0 0 1 2.23-1.6q1.15-.46 1.6.04.25.21.25.68v3.83h.05q.2-1.4 1.76-2.95a7 7 0 0 1 2.25-1.6q1.17-.46 1.62.04.22.21.22.63l.04.05v3.78q.21-1.3 1.77-2.94 1.69-1.69 3.1-1.77h-3.99a1 1 0 0 1-.67-.25q-.47-.46-.02-1.6t1.58-2.28q1.68-1.67 3.07-1.76H22.8a1 1 0 0 1-.67-.26q-.47-.46-.02-1.6.45-1.13 1.58-2.23 1.72-1.72 3.1-1.8H22.8a1 1 0 0 1-.67-.26q-.47-.46-.02-1.6.45-1.13 1.58-2.23a7 7 0 0 1 2.23-1.6q1.13-.46 1.64.04.3.25.2.85z" fill="#FF7A7A" stroke="#AD0000" stroke-width=".67"/>
</svg>