<svg viewBox="0 0 32 32" xmlns="http://www.w3.org/2000/svg"><path d="M25.99 24.17q.1 1.19-1.5 2.78-1.61 1.61-2.78 1.54h-5q-.36 0-.5-.21a1 1 0 0 1-.22-.47v-3.46q-.06 1.19-1.49 2.6-1.6 1.61-2.79 1.54h-5q-.35 0-.49-.21-.21-.22-.21-.65V7.8q-.07-1.2 1.52-2.75a6 6 0 0 1 1.9-1.36q.97-.39 1.35.04.38.4.02 1.35-.38.97-1.34 1.9-1.4 1.48-2.6 1.53h3.43q.35 0 .5.22.38.39.02 1.36-.39.95-1.34 1.89-1.43 1.46-2.6 1.52h3.24q.46-.06.68.22.38.4.02 1.36-.39.96-1.34 1.89-1.43 1.46-2.6 1.53h3.27q.43-.07.65.21.21.18.21.58h.03L11 22.54h.03q.12-1.11 1.5-2.5a6 6 0 0 1 1.9-1.36q.97-.39 1.35.03.21.18.21.58v3.25h.05q.17-1.19 1.49-2.5a6 6 0 0 1 1.9-1.36q1-.39 1.38.03.18.18.18.54l.04.04v3.2q.18-1.1 1.5-2.49 1.44-1.44 2.63-1.5h-3.39a1 1 0 0 1-.56-.21q-.4-.38-.02-1.36.38-.96 1.34-1.93 1.42-1.41 2.6-1.49h-3.36a1 1 0 0 1-.57-.22q-.4-.39-.02-1.36.38-.95 1.34-1.89 1.46-1.45 2.63-1.52h-3.38a1 1 0 0 1-.57-.22q-.4-.4-.02-1.36t1.34-1.89a6 6 0 0 1 1.89-1.36q.96-.39 1.39.04.25.21.17.72z" fill="#FF7A7A" stroke="#AD0000" stroke-width=".57"/></svg>