<svg width="25px" height="25px" viewBox="0 0 25 25" version="1.1" xmlns="http://www.w3.org/2000/svg" xmlns:xlink="http://www.w3.org/1999/xlink" xml:space="preserve" xmlns:serif="http://www.serif.com/" style="fill-rule:evenodd;clip-rule:evenodd;stroke-linejoin:round;stroke-miterlimit:2;">
    <g transform="matrix(0.69535,0,0,0.69535,-49.9719,-69.0088)">
        <path d="M72.546,131.212L99.124,104.54L80.984,104.071C80.296,104.009 79.726,103.743 79.273,103.275C78.82,102.806 78.593,102.228 78.593,101.54C78.656,100.884 78.921,100.337 79.39,99.9C79.859,99.462 80.421,99.243 81.078,99.243L104.796,99.9C105.421,99.9 105.96,100.142 106.414,100.626C106.867,101.11 107.093,101.681 107.093,102.337L107.89,126.056C107.89,126.712 107.656,127.275 107.187,127.743C106.718,128.212 106.14,128.446 105.453,128.446C104.828,128.478 104.289,128.275 103.835,127.837C103.382,127.4 103.124,126.837 103.062,126.15L102.593,108.009L75.921,134.587C75.484,134.993 74.921,135.196 74.234,135.196C73.546,135.196 72.984,134.993 72.546,134.587C72.078,134.118 71.851,133.548 71.867,132.876C71.882,132.204 72.109,131.65 72.546,131.212Z" style="fill:rgb(17,17,17);fill-rule:nonzero;"/>
    </g>
</svg>
