<svg width="28px" height="40px" viewBox="0 0 28 40" version="1.1" xmlns="http://www.w3.org/2000/svg" xmlns:xlink="http://www.w3.org/1999/xlink" xml:space="preserve" xmlns:serif="http://www.serif.com/" style="fill-rule:evenodd;clip-rule:evenodd;stroke-linejoin:round;stroke-miterlimit:2;">
    <g transform="matrix(2.34431,0,0,2.34431,-121.719,-106.21)">
        <path d="M61.891,52.583C62.594,52.716 63.09,53.012 63.379,53.473C63.668,53.934 63.813,54.661 63.813,55.653C63.813,57.622 63.221,59.233 62.037,60.487C60.854,61.741 59.34,62.368 57.496,62.368C56.77,62.368 56.065,62.237 55.381,61.975C54.698,61.714 54.11,61.348 53.618,60.88C53.055,60.364 52.633,59.819 52.352,59.245C52.071,58.671 51.93,58.083 51.93,57.481C51.93,56.809 52.075,56.29 52.364,55.923C52.653,55.555 53.11,55.305 53.735,55.173C53.618,54.899 53.532,54.669 53.477,54.481C53.422,54.294 53.395,54.149 53.395,54.048C53.395,53.696 53.58,53.337 53.951,52.969C54.323,52.602 54.672,52.419 55,52.419C55.141,52.419 55.289,52.444 55.446,52.495C55.602,52.546 55.782,52.63 55.985,52.747C55.383,51.044 54.946,49.729 54.672,48.803C54.399,47.878 54.262,47.239 54.262,46.887C54.262,46.403 54.387,46.018 54.637,45.733C54.887,45.448 55.227,45.305 55.657,45.305C56.391,45.305 57.321,46.946 58.446,50.227C58.641,50.79 58.789,51.223 58.891,51.528C58.977,51.286 59.098,50.942 59.254,50.497C60.379,47.247 61.348,45.622 62.16,45.622C62.559,45.622 62.877,45.757 63.116,46.026C63.354,46.296 63.473,46.657 63.473,47.11C63.473,47.454 63.342,48.083 63.08,48.997C62.819,49.911 62.422,51.106 61.891,52.583ZM61.047,52.383C61.571,50.962 61.979,49.788 62.272,48.862C62.565,47.936 62.711,47.368 62.711,47.157C62.711,46.93 62.662,46.755 62.565,46.63C62.467,46.505 62.332,46.442 62.16,46.442C61.942,46.442 61.719,46.624 61.493,46.987C61.266,47.35 61.016,47.934 60.743,48.739L59.571,52.126L61.047,52.383ZM58.164,51.985L56.899,48.329C56.571,47.399 56.317,46.792 56.137,46.507C55.957,46.221 55.762,46.079 55.551,46.079C55.387,46.079 55.254,46.141 55.153,46.266C55.051,46.391 55,46.559 55,46.77C55,47.13 55.137,47.755 55.41,48.645C55.684,49.536 56.094,50.704 56.641,52.149C56.688,52.063 56.754,52.003 56.84,51.967C56.926,51.932 57.043,51.915 57.192,51.915C57.239,51.915 57.332,51.919 57.473,51.926C57.614,51.934 57.844,51.954 58.164,51.985ZM59.489,55.536C59.153,55.52 58.834,55.485 58.534,55.43C58.233,55.376 57.946,55.298 57.672,55.196C57.797,55.446 57.909,55.696 58.006,55.946C58.104,56.196 58.184,56.442 58.246,56.684C58.434,56.45 58.631,56.237 58.838,56.046C59.045,55.854 59.262,55.684 59.489,55.536ZM53.5,57.364C53.61,57.497 53.762,57.692 53.957,57.95C54.473,58.661 54.95,59.016 55.387,59.016C55.535,59.016 55.668,58.969 55.785,58.876C55.903,58.782 55.961,58.684 55.961,58.583C55.961,58.466 55.883,58.27 55.727,57.997C55.571,57.723 55.356,57.415 55.082,57.071C54.77,56.673 54.51,56.382 54.303,56.198C54.096,56.014 53.93,55.923 53.805,55.923C53.532,55.923 53.28,56.069 53.049,56.362C52.819,56.655 52.703,57.001 52.703,57.399C52.703,57.719 52.784,58.077 52.944,58.471C53.104,58.866 53.336,59.262 53.641,59.661C54.102,60.278 54.674,60.753 55.358,61.085C56.041,61.417 56.797,61.583 57.625,61.583C59.149,61.583 60.424,61.014 61.451,59.878C62.479,58.741 62.993,57.317 62.993,55.606C62.993,55.083 62.953,54.667 62.875,54.358C62.797,54.05 62.668,53.825 62.489,53.684C62.168,53.419 61.545,53.18 60.619,52.969C59.694,52.758 58.727,52.653 57.719,52.653C57.438,52.653 57.239,52.7 57.121,52.794C57.004,52.887 56.946,53.048 56.946,53.274C56.946,53.805 57.243,54.19 57.836,54.428C58.43,54.667 59.391,54.786 60.719,54.786L61.2,54.786C61.309,54.786 61.397,54.827 61.463,54.909C61.53,54.991 61.575,55.114 61.598,55.278C61.465,55.403 61.192,55.546 60.778,55.706C60.364,55.866 60.047,56.024 59.828,56.18C59.36,56.524 58.983,56.932 58.698,57.405C58.412,57.878 58.27,58.325 58.27,58.747C58.27,59.005 58.33,59.315 58.451,59.678C58.573,60.042 58.633,60.266 58.633,60.352L58.633,60.434L58.61,60.54C58.266,60.516 57.994,60.315 57.795,59.936C57.596,59.557 57.496,59.051 57.496,58.419L57.496,58.313C57.434,58.368 57.373,58.407 57.315,58.43C57.256,58.454 57.192,58.466 57.121,58.466C57.051,58.466 56.985,58.46 56.922,58.448C56.86,58.436 56.789,58.419 56.711,58.395C56.735,58.481 56.752,58.565 56.764,58.647C56.776,58.729 56.782,58.794 56.782,58.841C56.782,59.13 56.668,59.378 56.442,59.585C56.215,59.792 55.946,59.895 55.633,59.895C55.141,59.895 54.641,59.655 54.133,59.175C53.625,58.694 53.371,58.223 53.371,57.762C53.371,57.676 53.381,57.6 53.401,57.534C53.42,57.467 53.453,57.411 53.5,57.364ZM57.016,57.645C57.149,57.645 57.27,57.585 57.379,57.464C57.489,57.342 57.543,57.212 57.543,57.071C57.543,56.923 57.436,56.577 57.221,56.034C57.006,55.491 56.739,54.958 56.418,54.434C56.184,54.044 55.953,53.749 55.727,53.55C55.5,53.35 55.285,53.251 55.082,53.251C54.918,53.251 54.737,53.354 54.537,53.561C54.338,53.768 54.239,53.962 54.239,54.141C54.239,54.329 54.336,54.61 54.532,54.985C54.727,55.36 54.989,55.758 55.317,56.18C55.66,56.641 55.985,57.001 56.289,57.258C56.594,57.516 56.836,57.645 57.016,57.645Z" style="fill:rgb(240, 239, 239);fill-rule:nonzero;"/>
    </g>
</svg>