<svg width="17px" height="25.5px" viewBox="0 0 20 30" version="1.1" xmlns="http://www.w3.org/2000/svg" xmlns:xlink="http://www.w3.org/1999/xlink" xml:space="preserve" xmlns:serif="http://www.serif.com/" style="fill-rule:evenodd;clip-rule:evenodd;stroke-linejoin:round;stroke-miterlimit:2;">
    <g transform="matrix(0.714286,0,0,0.714286,0,0)">
        <rect x="0.237" y="0" width="2.21" height="37.579" style="fill:#111;"/>
        <rect x="2.447" y="2.211" width="2.211" height="2.21" style="fill:#111;"/>
        <rect x="4.658" y="4.421" width="2.21" height="2.21" style="fill:#111;"/>
        <rect x="6.868" y="6.632" width="2.21" height="2.21" style="fill:#111;"/>
        <rect x="9.079" y="8.842" width="2.21" height="2.211" style="fill:#111;"/>
        <rect x="11.289" y="11.053" width="2.21" height="2.21" style="fill:#111;"/>
        <rect x="13.499" y="13.263" width="2.211" height="2.21" style="fill:#111;"/>
        <rect x="15.71" y="15.474" width="2.21" height="2.21" style="fill:#111;"/>
        <rect x="17.921" y="17.684" width="2.211" height="2.211" style="fill:#111;"/>
        <rect x="20.132" y="19.895" width="2.21" height="2.21" style="fill:#111;"/>
        <rect x="22.342" y="22.105" width="2.21" height="2.21" style="fill:#111;"/>
        <rect x="24.552" y="24.316" width="2.211" height="2.211" style="fill:#111;"/>
        <rect x="15.71" y="26.527" width="11.053" height="2.21" style="fill:#111;"/>
        <rect x="15.71" y="28.737" width="2.21" height="2.21" style="fill:#111;"/>
        <rect x="9.079" y="28.737" width="2.21" height="2.21" style="fill:#111;"/>
        <rect x="11.289" y="30.947" width="2.21" height="4.421" style="fill:#111;"/>
        <rect x="13.499" y="35.368" width="2.211" height="4.421" style="fill:#111;"/>
        <rect x="15.71" y="39.79" width="4.421" height="2.21" style="fill:#111;"/>
        <rect x="17.921" y="30.947" width="2.211" height="4.421" style="fill:#111;"/>
        <rect x="20.132" y="35.368" width="2.21" height="4.421" style="fill:#111;"/>
        <rect x="6.868" y="30.947" width="2.21" height="2.211" style="fill:#111;"/>
        <rect x="4.658" y="33.158" width="2.21" height="2.21" style="fill:#111;"/>
        <rect x="2.447" y="35.368" width="2.211" height="2.211" style="fill:#111;"/>
    </g>
</svg>
