<svg width="24px" height="30px" viewBox="0 0 24 30" version="1.1" xmlns="http://www.w3.org/2000/svg" xmlns:xlink="http://www.w3.org/1999/xlink" xml:space="preserve" xmlns:serif="http://www.serif.com/" style="fill-rule:evenodd;clip-rule:evenodd;stroke-linejoin:round;stroke-miterlimit:2;">
    <g transform="matrix(0.714286,0,0,0.714286,0,0)">
        <rect x="7.659" y="1.909" width="1.909" height="22.909" style="fill:#111;"/>
        <rect x="9.568" y="0" width="3.818" height="1.909" style="fill:#111;"/>
        <rect x="13.387" y="1.909" width="1.909" height="17.182" style="fill:#111;"/>
        <rect x="15.296" y="9.545" width="3.818" height="1.909" style="fill:#111;"/>
        <rect x="19.113" y="13.364" width="1.909" height="5.727" style="fill:#111;"/>
        <rect x="19.113" y="11.455" width="5.727" height="1.909" style="fill:#111;"/>
        <rect x="24.841" y="15.273" width="1.909" height="5.724" style="fill:#111;"/>
        <rect x="24.841" y="13.364" width="3.818" height="1.909" style="fill:#111;"/>
        <rect x="28.659" y="15.273" width="1.909" height="1.909" style="fill:#111;"/>
        <rect x="30.568" y="17.182" width="1.909" height="13.364" style="fill:#111;"/>
        <rect x="28.659" y="30.545" width="1.909" height="5.727" style="fill:#111;"/>
        <rect x="26.75" y="36.273" width="1.909" height="5.727" style="fill:#111;"/>
        <rect x="9.568" y="40.091" width="17.182" height="1.909" style="fill:#111;"/>
        <rect x="5.75" y="19.091" width="1.909" height="1.909" style="fill:#111;"/>
        <rect x="0.023" y="17.182" width="5.727" height="1.909" style="fill:#111;"/>
        <rect x="0.023" y="19.091" width="1.909" height="3.818" style="fill:#111;"/>
        <rect x="1.932" y="22.909" width="1.909" height="1.909" style="fill:#111;"/>
        <rect x="3.841" y="24.818" width="1.909" height="3.817" style="fill:#111;"/>
        <rect x="5.75" y="28.636" width="1.909" height="3.818" style="fill:#111;"/>
        <rect x="7.659" y="32.454" width="1.909" height="3.818" style="fill:#111;"/>
        <rect x="9.568" y="36.273" width="1.909" height="3.818" style="fill:#111;"/>
    </g>
</svg>
