<svg width="30px" height="30px" viewBox="0 0 32 32" version="1.1" xmlns="http://www.w3.org/2000/svg" xmlns:xlink="http://www.w3.org/1999/xlink" xml:space="preserve" xmlns:serif="http://www.serif.com/" style="fill-rule:evenodd;clip-rule:evenodd;stroke-linejoin:round;stroke-miterlimit:2;">
    <g transform="matrix(0.0929708,0.00373409,-0.00373409,0.0929708,-1.84732,-3.34096)">
        <g>
            <g transform="matrix(0.878873,-0.0352992,0.0352992,0.878873,21.6425,31.1052)">
                <path d="M15.469,143.731C46.547,44.631 152.075,-10.512 251.175,20.563C350.276,51.642 405.419,157.171 374.342,256.272C343.265,355.369 237.736,410.515 138.636,379.435C39.536,348.359 -15.608,242.83 15.469,143.731Z" style="fill:rgb(255,234,69);"/>
            </g>
            <g transform="matrix(1,0.000484657,-0.000484657,1,-414.47,-555.72)">
                <path d="M455.127,712.38C431.355,800.584 483.588,891.359 571.793,915.13C659.998,938.904 750.773,886.669 774.545,798.466C798.317,710.261 746.084,619.486 657.878,595.712C569.673,571.942 478.899,624.175 455.127,712.38Z" style="fill:none;fill-rule:nonzero;stroke:black;stroke-width:11.07px;"/>
            </g>
            <g transform="matrix(0.95435,-0.29869,0.29869,0.95435,-612.406,-337.291)">
                <path d="M598.189,868.173C654.57,876.544 711.885,823.616 727.073,767.272L720.989,765.631C705.539,822.952 644.128,874.828 586.82,859.378C529.497,843.929 499.079,767.041 514.528,709.721L508.441,708.082C492.09,768.754 524.503,849.108 585.178,865.462C589.511,866.629 593.858,867.531 598.189,868.173Z" style="fill:rgb(39,36,37);fill-rule:nonzero;stroke:black;stroke-width:5.96px;"/>
            </g>
            <g transform="matrix(0.95435,-0.29869,0.29869,0.95435,-612.406,-337.291)">
                <path d="M656.855,695.016C649.712,721.52 651.67,745.096 661.229,747.672C670.788,750.248 684.329,730.851 691.471,704.345C698.614,677.841 696.655,654.266 687.098,651.69C677.538,649.113 663.999,668.511 656.855,695.016Z" style="fill-rule:nonzero;"/>
            </g>
            <g transform="matrix(0.95435,-0.29869,0.29869,0.95435,-612.406,-337.291)">
                <path d="M574.247,672.752C567.103,699.258 569.062,722.832 578.622,725.409C588.18,727.985 601.72,708.587 608.862,682.082C616.006,655.577 614.048,632.002 604.489,629.426C594.929,626.85 581.39,646.248 574.247,672.752Z" style="fill-rule:nonzero;"/>
            </g>
            <g transform="matrix(0.95435,-0.29869,0.29869,0.95435,-612.6,-358.143)">
                <path d="M733.713,796.898C734.585,797.027 735.507,796.791 736.231,796.17C737.549,795.037 737.699,793.049 736.564,791.728C729.108,783.052 719.554,778.23 708.168,777.377C706.432,777.25 704.919,778.552 704.79,780.287C704.66,782.022 705.959,783.541 707.698,783.662C717.496,784.38 725.372,788.374 731.787,795.835C732.301,796.433 732.989,796.791 733.713,796.898Z" style="fill:rgb(39,36,37);fill-rule:nonzero;stroke:black;stroke-width:3.41px;"/>
            </g>
            <g transform="matrix(0.95435,-0.29869,0.29869,0.95435,-612.6,-358.143)">
                <path d="M491.922,731.733C492.41,731.807 492.919,731.764 493.415,731.592C502.716,728.366 511.528,728.881 520.36,733.173C521.93,733.936 523.812,733.278 524.57,731.715C525.33,730.151 524.677,728.265 523.114,727.505C512.844,722.516 502.159,721.886 491.351,725.64C489.706,726.212 488.836,728.007 489.407,729.651C489.806,730.796 490.8,731.568 491.922,731.733Z" style="fill:rgb(39,36,37);fill-rule:nonzero;stroke:black;stroke-width:3.41px;"/>
            </g>
        </g>
    </g>
</svg>
